<?xml version="1.0" encoding="UTF-8"?>
<svg id="Layer_1" data-name="Layer 1" xmlns="http://www.w3.org/2000/svg" width="512" height="512" xmlns:xlink="http://www.w3.org/1999/xlink" viewBox="0 0 512 512">
  <defs>
    <linearGradient id="linear-gradient" x1="259.7" y1="467.33" x2="252.04" y2="29.96" gradientUnits="userSpaceOnUse">
      <stop offset="0" stop-color="#1b1464"/>
      <stop offset=".35" stop-color="#1a1647"/>
      <stop offset=".76" stop-color="#19192c"/>
      <stop offset="1" stop-color="#191a22"/>
    </linearGradient>
    <linearGradient id="linear-gradient-2" x1="259.94" y1="481.79" x2="252.03" y2="30.23" gradientUnits="userSpaceOnUse">
      <stop offset="0" stop-color="#1b1464"/>
      <stop offset=".19" stop-color="#1c1766"/>
      <stop offset=".34" stop-color="#1f216e"/>
      <stop offset=".48" stop-color="#26327b"/>
      <stop offset=".61" stop-color="#2e4a8e"/>
      <stop offset=".74" stop-color="#3a68a7"/>
      <stop offset=".86" stop-color="#488ec4"/>
      <stop offset=".98" stop-color="#58bae7"/>
      <stop offset="1" stop-color="#5cc4ef"/>
    </linearGradient>
    <linearGradient id="linear-gradient-3" x1="104.14" y1="182.63" x2="425.08" y2="173.44" gradientUnits="userSpaceOnUse">
      <stop offset="0" stop-color="#821618"/>
      <stop offset=".05" stop-color="#851b17"/>
      <stop offset=".12" stop-color="#8d2b15"/>
      <stop offset=".2" stop-color="#9c4612"/>
      <stop offset=".29" stop-color="#b06b0f"/>
      <stop offset=".38" stop-color="#c99b0a"/>
      <stop offset=".47" stop-color="#e8d504"/>
      <stop offset=".53" stop-color="#ff0"/>
      <stop offset=".58" stop-color="#f8fc02"/>
      <stop offset=".65" stop-color="#e6f608"/>
      <stop offset=".73" stop-color="#c9eb13"/>
      <stop offset=".82" stop-color="#a1db23"/>
      <stop offset=".91" stop-color="#6dc836"/>
      <stop offset="1" stop-color="#39b54a"/>
    </linearGradient>
    <linearGradient id="linear-gradient-4" x1="256.21" y1="204.24" x2="255.44" y2="385" gradientUnits="userSpaceOnUse">
      <stop offset="0" stop-color="#1b1464"/>
      <stop offset=".04" stop-color="#251e6b"/>
      <stop offset=".31" stop-color="#716d9f"/>
      <stop offset=".55" stop-color="#aeabc8"/>
      <stop offset=".75" stop-color="#dad9e5"/>
      <stop offset=".91" stop-color="#f5f4f8"/>
      <stop offset="1" stop-color="#fff"/>
    </linearGradient>
    <linearGradient id="linear-gradient-5" x1="263.45" y1="506.97" x2="255.03" y2="243.49" xlink:href="#linear-gradient"/>
    <linearGradient id="linear-gradient-6" x1="243.71" y1="256" x2="268.29" y2="256" xlink:href="#linear-gradient"/>
  </defs>
  <circle cx="256" cy="256" r="254.07" fill="#5cc4ef"/>
  <path d="M496.74,256c0,3.56-.08,7.1-.24,10.62-.08,2.01-.19,4.01-.33,6-8.53,125.2-112.81,224.12-240.17,224.12S22.99,396.51,15.67,270.15c-.11-1.99-.21-3.99-.27-6-.09-2.7-.14-5.42-.14-8.15C15.26,123.05,123.05,15.26,256,15.26s240.74,107.79,240.74,240.74Z" fill="url(#linear-gradient)"/>
  <path d="M256.1,481.82c-2.07.01-4.14-.03-6.2-.08l.44-16.66c1.92.05,3.89.08,5.75.08,1.91,0,3.85-.03,5.78-.08l.46,16.66c-2.08.06-4.18.09-6.23.09ZM237.48,481.07c-4.11-.33-8.27-.79-12.36-1.35l2.26-16.51c3.79.52,7.65.94,11.46,1.25l-1.35,16.61ZM274.75,481.05l-1.37-16.61c3.82-.31,7.67-.74,11.45-1.26l2.28,16.51c-4.09.56-8.25,1.02-12.36,1.36ZM212.84,477.7c-4.06-.79-8.15-1.7-12.15-2.7l4.07-16.16c3.7.93,7.48,1.77,11.25,2.5l-3.17,16.36ZM299.39,477.65l-3.18-16.36c3.74-.73,7.53-1.57,11.24-2.51l4.09,16.16c-4.01,1.02-8.1,1.93-12.15,2.72ZM188.71,471.62c-3.96-1.24-7.93-2.59-11.8-4.04l5.84-15.61c3.58,1.34,7.25,2.6,10.92,3.74l-4.96,15.91ZM323.51,471.55l-4.98-15.91c3.66-1.14,7.32-2.4,10.9-3.74l5.85,15.61c-3.86,1.45-7.82,2.81-11.77,4.04ZM165.37,462.89c-3.78-1.66-7.57-3.45-11.27-5.32l7.53-14.87c3.42,1.73,6.93,3.39,10.43,4.93l-6.7,15.26ZM346.79,462.82l-6.71-15.26c3.51-1.54,7.01-3.2,10.4-4.92l7.54,14.87c-3.67,1.86-7.45,3.65-11.23,5.31ZM143.15,451.64c-3.57-2.07-7.14-4.26-10.6-6.53l9.12-13.95c3.21,2.1,6.51,4.13,9.82,6.05l-8.34,14.43ZM368.94,451.58l-8.35-14.43c3.3-1.91,6.6-3.94,9.8-6.04l9.13,13.94c-3.46,2.27-7.02,4.46-10.58,6.52ZM122.32,438.01c-3.32-2.44-6.62-5.02-9.82-7.65l10.6-12.87c2.96,2.44,6.02,4.82,9.1,7.09l-9.88,13.43ZM389.74,437.97l-9.88-13.42c3.08-2.27,6.14-4.65,9.09-7.08l10.6,12.86c-3.18,2.62-6.48,5.19-9.81,7.64ZM103.11,422.19c-3.03-2.79-6.03-5.71-8.92-8.67l11.94-11.63c2.67,2.75,5.46,5.45,8.27,8.04l-11.29,12.26ZM408.92,422.16l-11.29-12.26c2.81-2.59,5.59-5.3,8.26-8.04l11.94,11.62c-2.88,2.96-5.88,5.88-8.92,8.67ZM85.77,404.37c-2.71-3.11-5.37-6.33-7.92-9.59l13.14-10.25c2.35,3.02,4.82,6.01,7.33,8.89l-12.56,10.96ZM426.27,404.33l-12.56-10.95c2.52-2.89,4.99-5.88,7.33-8.89l13.14,10.25c-2.54,3.25-5.2,6.48-7.92,9.6ZM70.48,384.77c-2.36-3.39-4.65-6.89-6.81-10.4l14.19-8.75c2,3.25,4.12,6.49,6.31,9.63l-13.68,9.52ZM441.57,384.71l-13.69-9.51c2.18-3.13,4.3-6.38,6.32-9.65l14.19,8.74c-2.17,3.53-4.47,7.03-6.82,10.42ZM57.43,363.62c-1.97-3.63-3.87-7.36-5.63-11.08l15.06-7.13c1.63,3.45,3.38,6.9,5.21,10.26l-14.65,7.96ZM454.63,363.51l-14.65-7.95c1.83-3.37,3.58-6.83,5.22-10.29l15.07,7.12c-1.77,3.74-3.66,7.47-5.63,11.11ZM46.8,341.17c-1.56-3.82-3.03-7.74-4.37-11.63l15.76-5.43c1.24,3.6,2.6,7.22,4.04,10.76l-15.44,6.29ZM465.27,340.99l-15.44-6.28c1.44-3.55,2.8-7.18,4.05-10.8l15.77,5.41c-1.34,3.92-2.81,7.84-4.37,11.68ZM38.71,317.67c-1.13-3.97-2.15-8.03-3.06-12.06l16.26-3.64c.84,3.73,1.79,7.49,2.83,11.17l-16.04,4.54ZM473.36,317.44l-16.04-4.52c1.04-3.68,1.99-7.44,2.82-11.17l16.27,3.63c-.9,4.03-1.92,8.09-3.04,12.07ZM33.26,293.39c-.68-4.07-1.25-8.22-1.71-12.32l16.57-1.83c.42,3.8.95,7.64,1.58,11.41l-16.44,2.74ZM478.77,293.16l-16.44-2.73c.62-3.76,1.15-7.6,1.57-11.41l16.57,1.81c-.45,4.12-1.02,8.27-1.69,12.33ZM30.53,268.66c-.09-1.67-.17-3.36-.22-5.05-.08-2.5-.13-4.99-.13-7.37l16.67-.02c0,2.21.04,4.52.12,6.87.05,1.58.12,3.13.21,4.68l-16.64.9ZM481.48,268.42l-16.64-.88c.04-.76.08-1.51.11-2.27.14-3.09.21-6.19.21-9.27v-.46s16.67,0,16.67,0v.4c0,3.38-.08,6.73-.22,10.02-.03.78-.07,1.62-.11,2.45ZM47.15,244.69l-16.64-.89c.22-4.13.56-8.3,1-12.4l16.57,1.8c-.41,3.8-.72,7.66-.93,11.49ZM464.81,244.03c-.21-3.82-.54-7.68-.96-11.48l16.56-1.85c.46,4.1.81,8.27,1.04,12.39l-16.64.94ZM49.63,221.79l-16.45-2.71c.67-4.08,1.47-8.19,2.36-12.22l16.27,3.61c-.83,3.73-1.56,7.53-2.18,11.31ZM462.26,221.14c-.63-3.77-1.38-7.58-2.22-11.31l16.26-3.66c.91,4.03,1.71,8.13,2.4,12.21l-16.44,2.76ZM54.62,199.31l-16.05-4.51c1.12-3.97,2.36-7.97,3.7-11.88l15.77,5.39c-1.24,3.62-2.39,7.32-3.42,11ZM457.2,198.67c-1.04-3.67-2.21-7.37-3.46-10.99l15.75-5.44c1.35,3.91,2.61,7.9,3.74,11.87l-16.03,4.56ZM62.08,177.5l-15.45-6.26c1.55-3.83,3.24-7.68,5-11.42l15.08,7.11c-1.63,3.46-3.19,7.02-4.63,10.57ZM449.68,176.9c-1.45-3.54-3.01-7.07-4.65-10.52l15.06-7.15c1.77,3.72,3.46,7.54,5.02,11.36l-15.43,6.31ZM71.92,156.63l-14.66-7.93c1.97-3.64,4.06-7.27,6.23-10.79l14.2,8.73c-2,3.26-3.94,6.62-5.77,9.99ZM439.81,156.13c-1.83-3.36-3.77-6.71-5.78-9.95l14.18-8.77c2.17,3.51,4.27,7.12,6.24,10.75l-14.64,7.97ZM83.99,136.98l-13.7-9.5c2.35-3.39,4.83-6.77,7.37-10.03l13.15,10.24c-2.35,3.02-4.65,6.15-6.83,9.29ZM427.71,136.55c-2.18-3.13-4.48-6.24-6.84-9.27l13.13-10.26c2.55,3.26,5.03,6.63,7.39,10l-13.68,9.53ZM98.15,118.79l-12.58-10.94c2.71-3.12,5.54-6.2,8.42-9.16l11.96,11.61c-2.67,2.75-5.29,5.6-7.8,8.49ZM413.52,118.41c-2.51-2.88-5.14-5.72-7.82-8.47l11.93-11.64c2.89,2.96,5.73,6.03,8.44,9.14l-12.55,10.97ZM114.2,102.26l-11.3-12.25c3.04-2.8,6.19-5.55,9.37-8.18l10.62,12.85c-2.95,2.43-5.87,4.98-8.68,7.58ZM397.43,101.92c-2.82-2.59-5.74-5.13-8.7-7.56l10.58-12.88c3.19,2.62,6.35,5.37,9.39,8.16l-11.28,12.27ZM131.96,87.58l-9.89-13.41c3.32-2.45,6.75-4.84,10.2-7.1l9.15,13.93c-3.2,2.1-6.38,4.31-9.45,6.58ZM379.62,87.28c-3.09-2.27-6.28-4.47-9.48-6.56l9.11-13.96c3.46,2.26,6.9,4.64,10.23,7.09l-9.86,13.44ZM151.21,74.95l-8.36-14.42c3.57-2.07,7.24-4.07,10.92-5.94l7.56,14.86c-3.4,1.73-6.8,3.58-10.11,5.5ZM360.31,74.68c-3.32-1.91-6.73-3.76-10.15-5.48l7.51-14.88c3.69,1.86,7.38,3.86,10.96,5.92l-8.33,14.44ZM171.71,64.53l-6.72-15.25c3.77-1.66,7.64-3.24,11.5-4.69l5.87,15.6c-3.57,1.34-7.15,2.81-10.64,4.35ZM339.72,64.28c-3.51-1.54-7.11-2.99-10.7-4.33l5.82-15.62c3.88,1.44,7.76,3.02,11.56,4.68l-6.68,15.27ZM193.25,56.43l-5-15.9c3.94-1.24,7.97-2.38,11.97-3.4l4.1,16.15c-3.71.94-7.44,2-11.08,3.15ZM318.1,56.22c-3.65-1.13-7.38-2.18-11.09-3.11l4.05-16.17c4.01,1,8.04,2.13,11.98,3.36l-4.94,15.92ZM215.56,50.75l-3.2-16.36c4.05-.79,8.18-1.48,12.27-2.05l2.3,16.51c-3.79.53-7.61,1.17-11.36,1.9ZM295.76,50.62c-3.75-.72-7.58-1.35-11.37-1.86l2.24-16.52c4.1.56,8.23,1.23,12.28,2.01l-3.15,16.37ZM238.38,47.58l-1.38-16.61c4.11-.34,8.29-.58,12.42-.69l.48,16.66c-3.83.11-7.7.33-11.51.64ZM272.93,47.52c-3.8-.31-7.68-.51-11.51-.61l.42-16.66c4.13.1,8.31.33,12.42.65l-1.33,16.61Z" fill="url(#linear-gradient-2)"/>
  <circle cx="256" cy="256" r="26.42" fill="#fff"/>
  <path d="M155.05,290.8c-3.72-10.85-5.74-22.49-5.74-34.61,0-.69.01-1.38.02-2.07,1.1-57.98,48.43-104.62,106.67-104.62s105.57,46.64,106.67,104.62c.01.69.02,1.38.02,2.07,0,12.11-2.02,23.76-5.74,34.61h91.86c2-11.23,3.05-22.8,3.05-34.61,0-.69,0-1.38-.02-2.07-1.1-107.22-88.36-193.79-195.84-193.79S61.26,146.9,60.16,254.12c-.02.69-.02,1.38-.02,2.07,0,11.81,1.05,23.37,3.05,34.61h91.86Z" fill="url(#linear-gradient-3)"/>
  <path d="M496.5,266.62c-.08,2.01-.19,4.01-.33,6-8.53,125.2-112.81,224.12-240.17,224.12S22.99,396.51,15.67,270.15c-.11-1.99-.21-3.99-.27-6l154.43.66-.1,6.07c-.01.56-.02,1.12-.02,1.68,0,47.44,38.59,86.03,86.03,86.03s86.02-38.59,86.02-86.03c0-.56-.01-1.12-.02-1.68l-.1-6.18,154.86,1.92Z" fill="url(#linear-gradient-4)"/>
  <path d="M496.17,272.62c-8.53,125.2-112.81,224.12-240.17,224.12S22.99,396.51,15.67,270.15l148.06.63c-.01.59-.02,1.19-.02,1.78,0,50.83,41.2,92.03,92.03,92.03s92.02-41.2,92.02-92.03c0-.59-.01-1.19-.02-1.78l148.43,1.84Z" fill="url(#linear-gradient-5)"/>
  <path d="M249.29,241.23l154.2-55.43c2.59-.93,5.44.36,6.46,2.91l2.66,6.7c1.01,2.55-.18,5.45-2.7,6.55l-145.36,63.42c-2.64,1.15-5.71-.11-6.77-2.79l-8.49-21.36h0Z" fill="#fff"/>
  <circle cx="256" cy="256" r="12.29" fill="url(#linear-gradient-6)"/>
</svg>